Trimmed_Nord000004_forces_filt12Hz.mot
version=1
nRows=32
nColumns=28
inDegrees=yes
endheader
time	R_ground_force_vx	R_ground_force_vy	R_ground_force_vz	R_ground_force_px	R_ground_force_py	R_ground_force_pz	R_ground_torque_x	R_ground_torque_y	R_ground_torque_z	L_ground_force_vx	L_ground_force_vy	L_ground_force_vz	L_ground_force_px	L_ground_force_py	L_ground_force_pz	L_ground_torque_x	L_ground_torque_y	L_ground_torque_z	3_ground_force_vx	3_ground_force_vy	3_ground_force_vz	3_ground_force_px	3_ground_force_py	3_ground_force_pz	3_ground_torque_x	3_ground_torque_y	3_ground_torque_z	
1.252000	  0.000000	  0.000000	  0.000000	  0.000000	  0.000000	  0.000000	  0.000000	  0.000000	  0.000000	-10.581120	444.812591	-27.330636	 -0.258854	  0.006000	 -1.009529	  0.000000	  2.393441	  0.000000	-12.196849	485.514171	 25.774248	 -0.249824	  0.006000	 -1.389891	  0.000000	 -0.521190	  0.000000
1.252500	  0.000000	  0.000000	  0.000000	  0.000000	  0.000000	  0.000000	  0.000000	  0.000000	  0.000000	-10.589605	444.801754	-27.323781	 -0.258884	  0.006000	 -1.009536	  0.000000	  2.391594	  0.000000	-12.202345	485.548948	 25.788078	 -0.249845	  0.006000	 -1.389893	  0.000000	 -0.520223	  0.000000
1.253000	  0.000000	  0.000000	  0.000000	  0.000000	  0.000000	  0.000000	  0.000000	  0.000000	  0.000000	-10.598264	444.790712	-27.316888	 -0.258914	  0.006000	 -1.009543	  0.000000	  2.389759	  0.000000	-12.207972	485.583701	 25.801825	 -0.249865	  0.006000	 -1.389894	  0.000000	 -0.519244	  0.000000
1.253500	  0.000000	  0.000000	  0.000000	  0.000000	  0.000000	  0.000000	  0.000000	  0.000000	  0.000000	-10.607093	444.779464	-27.309952	 -0.258944	  0.006000	 -1.009550	  0.000000	  2.387937	  0.000000	-12.213727	485.618427	 25.815484	 -0.249885	  0.006000	 -1.389896	  0.000000	 -0.518254	  0.000000
1.254000	  0.000000	  0.000000	  0.000000	  0.000000	  0.000000	  0.000000	  0.000000	  0.000000	  0.000000	-10.616090	444.768008	-27.302969	 -0.258974	  0.006000	 -1.009557	  0.000000	  2.386126	  0.000000	-12.219603	485.653123	 25.829049	 -0.249905	  0.006000	 -1.389897	  0.000000	 -0.517253	  0.000000
1.254500	  0.000000	  0.000000	  0.000000	  0.000000	  0.000000	  0.000000	  0.000000	  0.000000	  0.000000	-10.625251	444.756341	-27.295933	 -0.259004	  0.006000	 -1.009564	  0.000000	  2.384325	  0.000000	-12.225596	485.687787	 25.842517	 -0.249926	  0.006000	 -1.389898	  0.000000	 -0.516240	  0.000000
1.255000	  0.000000	  0.000000	  0.000000	  0.000000	  0.000000	  0.000000	  0.000000	  0.000000	  0.000000	-10.634575	444.744459	-27.288842	 -0.259033	  0.006000	 -1.009572	  0.000000	  2.382535	  0.000000	-12.231701	485.722417	 25.855881	 -0.249946	  0.006000	 -1.389899	  0.000000	 -0.515217	  0.000000
1.255500	  0.000000	  0.000000	  0.000000	  0.000000	  0.000000	  0.000000	  0.000000	  0.000000	  0.000000	-10.644058	444.732358	-27.281690	 -0.259063	  0.006000	 -1.009579	  0.000000	  2.380755	  0.000000	-12.237912	485.757012	 25.869138	 -0.249966	  0.006000	 -1.389901	  0.000000	 -0.514182	  0.000000
1.256000	  0.000000	  0.000000	  0.000000	  0.000000	  0.000000	  0.000000	  0.000000	  0.000000	  0.000000	-10.653696	444.720034	-27.274473	 -0.259092	  0.006000	 -1.009586	  0.000000	  2.378985	  0.000000	-12.244223	485.791569	 25.882284	 -0.249986	  0.006000	 -1.389901	  0.000000	 -0.513137	  0.000000
1.256500	  0.000000	  0.000000	  0.000000	  0.000000	  0.000000	  0.000000	  0.000000	  0.000000	  0.000000	-10.663488	444.707481	-27.267185	 -0.259121	  0.006000	 -1.009594	  0.000000	  2.377222	  0.000000	-12.250629	485.826086	 25.895313	 -0.250007	  0.006000	 -1.389902	  0.000000	 -0.512080	  0.000000
1.257000	  0.000000	  0.000000	  0.000000	  0.000000	  0.000000	  0.000000	  0.000000	  0.000000	  0.000000	-10.673431	444.694694	-27.259823	 -0.259150	  0.006000	 -1.009601	  0.000000	  2.375468	  0.000000	-12.257123	485.860559	 25.908223	 -0.250027	  0.006000	 -1.389903	  0.000000	 -0.511011	  0.000000
1.257500	  0.000000	  0.000000	  0.000000	  0.000000	  0.000000	  0.000000	  0.000000	  0.000000	  0.000000	-10.683520	444.681668	-27.252383	 -0.259179	  0.006000	 -1.009609	  0.000000	  2.373721	  0.000000	-12.263701	485.894983	 25.921010	 -0.250047	  0.006000	 -1.389904	  0.000000	 -0.509931	  0.000000
1.258000	  0.000000	  0.000000	  0.000000	  0.000000	  0.000000	  0.000000	  0.000000	  0.000000	  0.000000	-10.693754	444.668397	-27.244860	 -0.259208	  0.006000	 -1.009617	  0.000000	  2.371981	  0.000000	-12.270355	485.929352	 25.933671	 -0.250067	  0.006000	 -1.389904	  0.000000	 -0.508837	  0.000000
1.258500	  0.000000	  0.000000	  0.000000	  0.000000	  0.000000	  0.000000	  0.000000	  0.000000	  0.000000	-10.704128	444.654878	-27.237250	 -0.259237	  0.006000	 -1.009624	  0.000000	  2.370247	  0.000000	-12.277082	485.963658	 25.946203	 -0.250088	  0.006000	 -1.389905	  0.000000	 -0.507731	  0.000000
1.259000	  0.000000	  0.000000	  0.000000	  0.000000	  0.000000	  0.000000	  0.000000	  0.000000	  0.000000	-10.714639	444.641105	-27.229550	 -0.259265	  0.006000	 -1.009632	  0.000000	  2.368520	  0.000000	-12.283875	485.997893	 25.958601	 -0.250108	  0.006000	 -1.389905	  0.000000	 -0.506610	  0.000000
1.259500	  0.000000	  0.000000	  0.000000	  0.000000	  0.000000	  0.000000	  0.000000	  0.000000	  0.000000	-10.725284	444.627074	-27.221755	 -0.259294	  0.006000	 -1.009640	  0.000000	  2.366797	  0.000000	-12.290729	486.032048	 25.970864	 -0.250128	  0.006000	 -1.389905	  0.000000	 -0.505475	  0.000000
1.260000	  0.000000	  0.000000	  0.000000	  0.000000	  0.000000	  0.000000	  0.000000	  0.000000	  0.000000	-10.736059	444.612779	-27.213861	 -0.259322	  0.006000	 -1.009648	  0.000000	  2.365080	  0.000000	-12.297639	486.066116	 25.982987	 -0.250149	  0.006000	 -1.389906	  0.000000	 -0.504325	  0.000000
1.260500	  0.000000	  0.000000	  0.000000	  0.000000	  0.000000	  0.000000	  0.000000	  0.000000	  0.000000	-10.746962	444.598215	-27.205864	 -0.259350	  0.006000	 -1.009655	  0.000000	  2.363367	  0.000000	-12.304601	486.100089	 25.994967	 -0.250169	  0.006000	 -1.389906	  0.000000	 -0.503160	  0.000000
1.261000	  0.000000	  0.000000	  0.000000	  0.000000	  0.000000	  0.000000	  0.000000	  0.000000	  0.000000	-10.757990	444.583377	-27.197759	 -0.259379	  0.006000	 -1.009663	  0.000000	  2.361658	  0.000000	-12.311611	486.133957	 26.006802	 -0.250190	  0.006000	 -1.389906	  0.000000	 -0.501980	  0.000000
1.261500	  0.000000	  0.000000	  0.000000	  0.000000	  0.000000	  0.000000	  0.000000	  0.000000	  0.000000	-10.769141	444.568261	-27.189544	 -0.259407	  0.006000	 -1.009671	  0.000000	  2.359953	  0.000000	-12.318666	486.167712	 26.018490	 -0.250210	  0.006000	 -1.389906	  0.000000	 -0.500784	  0.000000
1.262000	  0.000000	  0.000000	  0.000000	  0.000000	  0.000000	  0.000000	  0.000000	  0.000000	  0.000000	-10.780414	444.552864	-27.181215	 -0.259435	  0.006000	 -1.009679	  0.000000	  2.358251	  0.000000	-12.325764	486.201345	 26.030027	 -0.250231	  0.006000	 -1.389906	  0.000000	 -0.499572	  0.000000
1.262500	  0.000000	  0.000000	  0.000000	  0.000000	  0.000000	  0.000000	  0.000000	  0.000000	  0.000000	-10.791806	444.537181	-27.172769	 -0.259463	  0.006000	 -1.009687	  0.000000	  2.356554	  0.000000	-12.332903	486.234845	 26.041412	 -0.250252	  0.006000	 -1.389906	  0.000000	 -0.498345	  0.000000
1.263000	  0.000000	  0.000000	  0.000000	  0.000000	  0.000000	  0.000000	  0.000000	  0.000000	  0.000000	-10.803316	444.521207	-27.164205	 -0.259491	  0.006000	 -1.009695	  0.000000	  2.354861	  0.000000	-12.340083	486.268203	 26.052642	 -0.250273	  0.006000	 -1.389906	  0.000000	 -0.497103	  0.000000
1.263500	  0.000000	  0.000000	  0.000000	  0.000000	  0.000000	  0.000000	  0.000000	  0.000000	  0.000000	-10.814941	444.504935	-27.155521	 -0.259519	  0.006000	 -1.009703	  0.000000	  2.353172	  0.000000	-12.347302	486.301412	 26.063718	 -0.250294	  0.006000	 -1.389906	  0.000000	 -0.495846	  0.000000
1.264000	  0.000000	  0.000000	  0.000000	  0.000000	  0.000000	  0.000000	  0.000000	  0.000000	  0.000000	-10.826677	444.488359	-27.146716	 -0.259546	  0.006000	 -1.009711	  0.000000	  2.351488	  0.000000	-12.354559	486.334461	 26.074637	 -0.250315	  0.006000	 -1.389905	  0.000000	 -0.494575	  0.000000
1.264500	  0.000000	  0.000000	  0.000000	  0.000000	  0.000000	  0.000000	  0.000000	  0.000000	  0.000000	-10.838521	444.471472	-27.137788	 -0.259574	  0.006000	 -1.009719	  0.000000	  2.349810	  0.000000	-12.361855	486.367344	 26.085398	 -0.250336	  0.006000	 -1.389905	  0.000000	 -0.493290	  0.000000
1.265000	  0.000000	  0.000000	  0.000000	  0.000000	  0.000000	  0.000000	  0.000000	  0.000000	  0.000000	-10.850470	444.454266	-27.128736	 -0.259601	  0.006000	 -1.009727	  0.000000	  2.348136	  0.000000	-12.369188	486.400053	 26.096000	 -0.250358	  0.006000	 -1.389905	  0.000000	 -0.491993	  0.000000
1.265500	  0.000000	  0.000000	  0.000000	  0.000000	  0.000000	  0.000000	  0.000000	  0.000000	  0.000000	-10.862523	444.436732	-27.119560	 -0.259629	  0.006000	 -1.009735	  0.000000	  2.346468	  0.000000	-12.376558	486.432580	 26.106442	 -0.250379	  0.006000	 -1.389904	  0.000000	 -0.490685	  0.000000
1.266000	  0.000000	  0.000000	  0.000000	  0.000000	  0.000000	  0.000000	  0.000000	  0.000000	  0.000000	-10.874676	444.418861	-27.110256	 -0.259656	  0.006000	 -1.009744	  0.000000	  2.344807	  0.000000	-12.383965	486.464918	 26.116722	 -0.250401	  0.006000	 -1.389904	  0.000000	 -0.489367	  0.000000
1.266500	  0.000000	  0.000000	  0.000000	  0.000000	  0.000000	  0.000000	  0.000000	  0.000000	  0.000000	-10.886928	444.400643	-27.100826	 -0.259683	  0.006000	 -1.009752	  0.000000	  2.343152	  0.000000	-12.391408	486.497061	 26.126838	 -0.250423	  0.006000	 -1.389903	  0.000000	 -0.488039	  0.000000
1.267000	  0.000000	  0.000000	  0.000000	  0.000000	  0.000000	  0.000000	  0.000000	  0.000000	  0.000000	-10.899275	444.382067	-27.091268	 -0.259711	  0.006000	 -1.009760	  0.000000	  2.341505	  0.000000	-12.398888	486.529001	 26.136791	 -0.250445	  0.006000	 -1.389903	  0.000000	 -0.486704	  0.000000
1.267500	  0.000000	  0.000000	  0.000000	  0.000000	  0.000000	  0.000000	  0.000000	  0.000000	  0.000000	-10.911715	444.363122	-27.081581	 -0.259738	  0.006000	 -1.009768	  0.000000	  2.339864	  0.000000	-12.406403	486.560730	 26.146580	 -0.250467	  0.006000	 -1.389902	  0.000000	 -0.485361	  0.000000
